<svg version="1.1" id="Layer_1" xmlns="http://www.w3.org/2000/svg" x="0px" y="0px" viewBox="0 0 1280 1024">
<style>
  #Layer_1 {
    fill: white;
  }
</style>
<g>
  <path class="st0" d="M65,61.2c-7.9,0-12.3,4.7-12.3,12.5c0,7.1,3.7,12.6,8.2,16.2l20.5,16.4c8.4,6.8,16.4,17,16.4,31.7
    c0,17-11.4,26.8-28.7,26.8c-21.4,0-31.5-13.9-32.8-33.9l16.4-4.1c0.6,11.8,4,24.6,16.4,24.6c8.2,0,12.3-4.1,12.3-12.3
    c0-10.3-6.3-15.7-12.3-20.5l-20.5-16.4c-7-5.5-12.3-14.6-12.3-26.7c0-17,11.5-27.6,28.7-27.6c20.3,0,31.3,11.2,32.8,29.8l-16.4,4.1
    C80.6,70.8,76.5,61.2,65,61.2z"/>
  <path class="st0" d="M141.7,164.7c-7.4,0-12.7-4.6-16.4-8.5v31.9H109V81.7h16.4v8.2c4.5-4.7,8.6-9.3,16.6-9.3
    c20,0,20.2,23.9,20.2,45v1.2C162.2,143.3,158.1,164.7,141.7,164.7z M145.8,117.9c0-10.2-0.1-24.8-9.7-24.8c-4.5,0-7.8,2.4-10.8,4.2
    V148c3.6,2.1,7.7,3.3,12.3,3.3c7.4,0,8.3-11.9,8.3-22.6c0-3.7-0.1-7.3-0.1-10.2V117.9z"/>
  <path class="st0" d="M220.8,106.2v36.8c0,8.4,0.5,14.6,2.1,20.5h-16.3l-2.2-12.3c-3.3,6.5-6.9,13.4-16.4,13.4s-16.4-9.7-16.4-19.3
    c0-21.3,17-27.1,32.8-33.3v-5.9c0-7.2-1.3-13-8.2-13c-6.7,0-8.2,5.9-8.2,13h-16.4c0.2-15.5,9-25.7,24.6-25.7S220.8,91,220.8,106.2z
     M188,141.1c0,6.1,2.3,10.2,8.2,10.2c4,0,6.5-3.7,8.2-6v-22.6C197.9,127,188,131.2,188,141.1z"/>
  <path class="st0" d="M257.6,151.3c8.2,0,8.2-8.2,8.2-16.4h16.4c0,18-6.3,29.8-24.6,29.8c-22.2,0-24.6-20-24.6-42.1
    s2.4-42.1,24.6-42.1c18.7,0,24.6,11.2,24.6,29.8h-16.4c0-7.7-0.6-17.1-8.2-17.1c-9.9,0-8.2,19-8.2,29.4
    C249.4,132.9,247.6,151.3,257.6,151.3z"/>
  <path class="st0" d="M315.3,151.3c8.3,0,8.3-8.1,8.3-16.4h16.3c0,18.9-6.8,29.8-24.6,29.8c-22.3,0-24.5-20.8-24.5-44
    c0-22.2,3.2-40.2,24.6-40.2s24.6,18,24.6,40.2v1.9h-32.8v4.1C307.1,136.2,306,151.3,315.3,151.3z M315.3,94c-8.4,0-8.2,12-8.2,20.5
    h16.4C323.4,105.9,323.6,94,315.3,94z"/>
  <path class="st0" d="M400,63.5h-20.5v100h-16.4v-100h-20.5V48.9H400V63.5z"/>
  <path class="st0" d="M433.3,80.5c0.8,0,1.4,0.1,2.6,0.3v18.1c-2.4-1-5.9-1.8-9.1-1.8c-6.8,0-11.4,4.4-11.4,11.2v55.3h-16.4V81.7
    h16.4v10.9C418.4,86.9,424.8,80.5,433.3,80.5z"/>
  <path class="st0" d="M487.1,106.2v36.8c0,8.4,0.5,14.6,2.1,20.5h-16.3l-2.2-12.3c-3.3,6.5-6.9,13.4-16.4,13.4S438,155,438,145.5
    c0-21.3,17-27.1,32.8-33.3v-5.9c0-7.2-1.3-13-8.2-13c-6.7,0-8.2,5.9-8.2,13H438c0.2-15.5,9-25.7,24.6-25.7S487.1,91,487.1,106.2z
     M454.4,141.1c0,6.1,2.3,10.2,8.2,10.2c4,0,6.5-3.7,8.2-6v-22.6C464.3,127,454.4,131.2,454.4,141.1z"/>
  <path class="st0" d="M536.3,89.8V49h16.4v114.6h-16.4v-7.4c-3.8,3.9-9,8.6-16.4,8.6c-16.4,0-20.5-21.5-20.5-38.1
    c0-21.4-0.3-46.1,20.2-46.1C527.4,80.5,532,85.3,536.3,89.8z M524,151.3c4.2,0,8.6-1.1,12.3-2.6V97.2c-3-1.8-7.7-3.3-12.3-3.3
    c-9.6,0-8.2,14.6-8.2,24.5C515.8,129.7,514.1,151.3,524,151.3z"/>
  <path class="st0" d="M590.6,151.3c8.3,0,8.3-8.1,8.3-16.4h16.3c0,18.9-6.8,29.8-24.6,29.8c-22.3,0-24.5-20.8-24.5-44
    c0-22.2,3.2-40.2,24.6-40.2c21.4,0,24.6,18,24.6,40.2v1.9h-32.8v4.1C582.4,136.2,581.4,151.3,590.6,151.3z M590.6,94
    c-8.4,0-8.2,12-8.2,20.5h16.4C598.8,105.9,599,94,590.6,94z"/>
  <path class="st0" d="M646.5,94c-5.2,0-8.2,2.9-8.2,8.2c0,3.2,2.3,5.6,4.1,6.9l16.4,12.3c6.5,5.2,12.3,11.4,12.3,21.7
    c0,14.3-10,21.6-24.6,21.6c-14.4,0-21.8-10-24.6-21.6l12.3-4.1c1.9,5.2,5.4,12.3,12.3,12.3c5.2,0,8.2-2.9,8.2-8.2
    c0-4.5-1.8-7.4-4.1-9.5l-16.4-12.3c-6.2-4.3-12.3-9.5-12.3-19.2c0-14.3,10-21.6,24.6-21.6c14.6,0,21.8,10,24.6,21.6l-12.3,4.1
    C656.8,101.1,653.5,94,646.5,94z"/>
</g>
</svg>